<svg width="533" height="121" viewBox="0 0 533 121" fill="none" xmlns="http://www.w3.org/2000/svg">
<path d="M51.6545 27.3803C60.1249 23.348 68.9914 22.4028 78.0603 25.0914C85.0603 27.1665 93.6394 32.8112 97.204 39.3068C97.3756 39.9046 97.4451 40.2529 97.7851 40.7868C98.995 47.274 90.9752 50.4105 87.6007 45.6526C77.817 31.8616 58.3949 31.6595 48.1592 45.1059C44.1268 50.5026 42.3736 57.2664 43.2768 63.9425C43.4701 65.3072 43.8841 67.0581 44.3193 68.3977C44.2085 68.4272 43.9577 68.4758 43.8585 68.4595C42.5332 68.2435 32.1834 66.4213 31.8258 66.0327L31.8107 65.9377C30.3661 56.5139 32.6553 46.8985 38.1913 39.1366C39.8884 39.3256 41.5687 39.4413 43.2257 39.0076C46.667 38.1069 49.4522 35.5043 50.8267 32.2546C51.5648 30.5096 51.6439 29.2434 51.6545 27.3803Z" fill="#2EAA7A"/>
<path d="M32.7927 63.5205C32.8416 64.5227 32.8504 65.1844 32.7979 66.1843C32.4123 65.4991 32.5513 64.2437 32.7927 63.5205Z" fill="#244247"/>
<path d="M51.5629 79.4169C56.4124 83.5757 62.9009 86.0051 69.3183 85.5028C75.8175 85.0474 81.8573 81.9834 86.0638 77.0074C87.794 74.9832 88.866 72.7149 91.9266 72.4958C93.4721 72.3895 94.997 72.8958 96.1711 73.905C97.4104 74.9836 98.0414 76.5326 98.1196 78.1496C98.1489 78.7338 98.099 79.3192 97.9697 79.8898C97.5483 80.3432 97.4038 80.7544 97.2844 81.3613C96.926 82.2843 95.9278 83.4965 95.2892 84.2581C91.5378 88.6602 86.8219 92.139 81.5087 94.4231C69.3574 99.7255 55.7047 97.3121 45.3285 89.3879C46.0075 88.5245 47.665 85.6233 48.3417 84.5551C49.2537 83.1149 50.8353 80.8455 51.5629 79.4169Z" fill="#063E7A"/>
<path d="M115.906 46.593L116.039 46.7398C116.546 46.7273 117.054 46.6987 117.56 46.6542C121.153 46.4675 124.671 47.7356 127.317 50.1726C135.554 57.6183 131.606 71.9196 120.566 73.8637C119.706 74.0151 118.581 73.9799 117.82 74.1362C117.346 74.1207 116.725 74.0518 116.239 74.0129C112.847 73.6469 109.174 71.2578 107.152 68.5559C104.962 65.5741 104.049 61.8435 104.612 58.1871C105.327 53.4372 108.506 49.4218 112.964 47.6355C113.488 47.4255 115.71 46.8176 115.906 46.593Z" fill="#2EAA7A"/>
<path d="M107.436 35.4352C107.19 33.2136 107.409 31.5012 108.848 29.6987C109.992 28.2632 111.669 27.3534 113.496 27.1777C115.31 26.9791 117.126 27.5306 118.524 28.7042C119.939 29.8588 120.824 31.5404 120.971 33.361C121.125 35.2351 120.525 37.0934 119.303 38.523C118.435 39.5285 117.46 40.0649 116.234 40.5486C115.801 40.661 115.007 40.7719 114.77 41.0328C114.544 40.8793 113.756 40.9036 113.413 40.8619C110.747 40.5378 109.208 39.2958 107.939 36.9562C107.716 36.4065 107.599 35.9981 107.436 35.4352Z" fill="#063E7A"/>
<path d="M50.023 69.8463C50.8002 67.5712 52.8972 66.0088 55.2997 65.9151C57.7022 65.8215 59.9146 67.2157 60.8665 69.4235C61.8185 71.6313 61.3138 74.1972 59.5965 75.88C57.8794 77.5627 55.3037 78.0153 53.1157 77.0187C52.6322 76.7984 52.181 76.513 51.7751 76.1702C50.3608 74.9765 49.5992 73.1808 49.724 71.3343C49.7582 70.8273 49.8587 70.3271 50.023 69.8463Z" fill="#063E7A"/>
<path d="M107.436 35.4353C107.599 35.9982 107.716 36.4066 107.939 36.9563L97.785 40.7869C97.4451 40.253 97.3756 39.9047 97.204 39.3069C100.57 37.9836 104.049 36.7157 107.436 35.4353Z" fill="#063E7A"/>
<path d="M97.9697 79.8899C100.459 81.3215 103.861 82.5769 106.578 84.0709L105.88 85.552C103.832 84.3347 99.639 82.5108 97.2844 81.3613C97.4038 80.7544 97.5483 80.3432 97.9697 79.8899Z" fill="#2EAA7A"/>
<path d="M114.77 41.033C115.007 40.7721 115.801 40.6612 116.234 40.5488C116.84 42.7265 117.157 44.4201 117.56 46.6543C117.054 46.6988 116.546 46.7274 116.039 46.7398L115.906 46.5931C115.498 45.0996 115.082 42.6002 114.77 41.033Z" fill="#063E7A"/>
<path d="M116.239 74.0129C116.725 74.0518 117.346 74.1207 117.82 74.1362C117.542 75.9343 117.054 78.2553 116.537 80.0098C116.223 80.0118 115.183 79.7483 114.974 79.5046C115.47 77.7523 115.852 75.8064 116.239 74.0129Z" fill="#063E7A"/>
<path fill-rule="evenodd" clip-rule="evenodd" d="M15.5498 64.5792C15.8143 64.5583 17.7126 64.9521 18.8643 65.2022L19.6787 65.3839C20.1267 68.7891 20.5648 71.7239 21.6289 75.0782C24.544 84.266 30.0684 92.1295 37.502 98.254C37.6039 98.3376 37.6995 98.4009 37.7764 98.4551C38.1175 98.7894 38.5706 99.1857 38.9824 99.4278C39.3764 99.644 40.2908 100.331 40.7549 100.64C41.9172 101.41 43.1087 102.136 44.3271 102.815C51.6097 106.96 59.8576 109.109 68.2373 109.047C79.3948 108.951 90.3309 104.611 98.7754 97.4073C100.441 95.9857 102.03 94.3317 103.569 92.7667C105.736 96.9416 108.018 98.826 112.687 99.7003C110.896 102.077 108.008 104.68 105.72 106.606C97.2352 113.798 87.0936 118.282 76.1328 120.001C44.6219 124.945 13.203 101.626 8.56543 69.9698C12.0125 69.0639 13.8459 67.7676 15.5498 64.5792ZM30.9502 67.6465L31.5352 67.7813C31.3298 67.732 31.0778 67.6744 30.7881 67.6104C30.8435 67.6227 30.8976 67.6348 30.9502 67.6465ZM27.9512 67.0157C28.2277 67.072 28.498 67.1277 28.7598 67.1817C28.498 67.1277 28.2277 67.072 27.9512 67.0157Z" fill="#063E7A"/>
<path d="M51.7751 76.1702C52.1811 76.5129 52.6322 76.7984 53.1158 77.0186C52.5982 77.8858 52.1804 78.6108 51.563 79.4169C50.8353 80.8454 49.2537 83.1148 48.3417 84.555C47.665 85.6232 46.0075 88.5244 45.3285 89.3878C43.4016 92.531 41.0958 96.4529 38.9829 99.4278C38.5708 99.1856 38.1172 98.7892 37.7759 98.4546L41.5996 92.3725C42.3713 91.1376 43.3279 89.5008 44.1626 88.3571C46.0393 85.188 48.2977 81.4269 50.4039 78.4236C50.8353 77.6707 51.3183 76.911 51.7751 76.1702Z" fill="#063E7A"/>
<path fill-rule="evenodd" clip-rule="evenodd" d="M32.127 67.9497C32.624 67.8759 41.0805 69.6865 44.1133 70.3052L45.042 70.4888C46.3893 73.4776 48.0445 76.1163 50.4043 78.4233C50.8357 77.6705 51.3176 76.9102 51.7744 76.1694L51.7754 76.1704C52.1813 76.513 52.6328 76.7979 53.1162 77.0181C52.5987 77.8852 52.18 78.6104 51.5625 79.4165C50.8348 80.8451 49.2538 83.115 48.3418 84.5552C47.6651 85.6235 46.0071 88.5237 45.3281 89.3872C43.4014 92.5302 41.0962 96.4525 38.9834 99.4272C38.5713 99.1851 38.1176 98.789 37.7764 98.4546L41.5996 92.3726C42.3712 91.1377 43.3275 89.5006 44.1621 88.3569C43.0612 87.5218 41.7289 86.1711 40.7988 85.1353C36.2785 80.1007 33.5611 74.5141 32.127 67.9497Z" fill="#2EAA7A"/>
<path d="M8.67645 51.0577C9.16726 48.5725 9.45856 46.4649 10.1635 43.9623C13.7334 31.1934 21.3918 19.9472 31.9651 11.9475C44.5277 2.45574 60.3582 -1.63127 75.9457 0.592961C92.3122 2.85695 105.818 11.4971 115.714 24.5562C110.926 24.1045 107.645 25.932 105.385 30.1526C99.7238 22.8646 92.0906 17.3549 83.3909 14.2783C73.5986 10.7789 62.9202 10.6441 53.0435 13.8952C50.1322 14.8571 47.4476 16.1448 44.682 17.45C42.3136 16.6285 40.1459 16.1689 37.6741 16.823C31.125 18.5557 27.8003 24.5871 29.3281 30.9561C28.6308 32.1296 27.5691 33.4591 26.8043 34.7261C24.9694 37.7658 23.609 40.7163 22.3616 44.0241C21.863 44.7404 13.9016 52.8234 13.1677 53.3194C11.6976 52.1058 10.5783 51.438 8.67645 51.0577Z" fill="#063E7A"/>
<path d="M33.4592 33.3755C30.5682 29.738 31.0495 24.47 34.5516 21.4164C38.0538 18.3629 43.3382 18.6037 46.5481 21.9633C49.7579 25.3228 49.7579 30.6127 46.5479 33.9722C43.338 37.3316 38.0536 37.5724 34.5515 34.5187C34.1534 34.1716 33.7878 33.789 33.4592 33.3755Z" fill="#063E7A"/>
<path d="M114.974 79.5046C115.183 79.7484 116.223 80.0118 116.537 80.0098C124.138 82.391 125.029 92.5757 117.968 96.1555C115.896 97.1927 113.492 97.3513 111.302 96.5943C109.138 95.8655 107.351 94.3069 106.335 92.2618C105.097 89.7659 105.402 88.0684 105.88 85.552L106.578 84.0708C107.972 82.0443 109.499 80.574 111.954 79.9506C112.921 79.7053 113.915 79.7643 114.881 79.6491L114.974 79.5046Z" fill="#2EAA7A"/>
<path d="M12.7803 63.9961C11.3097 66.476 8.44731 67.774 5.6129 67.2461C2.77849 66.7183 0.575224 64.477 0.0959258 61.634C-0.383372 58.791 0.963289 55.9512 3.46796 54.5232C5.97273 53.0953 9.10245 53.3831 11.3047 55.2438C11.6991 55.577 12.0547 55.9536 12.3647 56.3664C13.6843 58.1238 14.0835 60.4065 13.4388 62.5076C13.2791 63.028 13.058 63.5277 12.7803 63.9961Z" fill="#2EAA7A"/>
<path d="M33.4592 33.3755C33.7878 33.789 34.1534 34.1716 34.5515 34.5187C31.6273 37.4397 28.6838 40.3413 25.7215 43.2235C24.675 44.246 22.1187 46.6265 21.2919 47.6729C20.6828 48.0715 20.0669 48.7479 19.549 49.2768C17.8423 51.0201 15.9922 52.6792 14.295 54.4247L12.3647 56.3664C12.0547 55.9535 11.6991 55.577 11.3047 55.2438C11.7009 54.7024 12.6474 53.7654 13.1677 53.3195C13.9016 52.8235 21.863 44.7405 22.3616 44.0242C22.8206 43.9248 32.4144 34.473 33.4592 33.3755Z" fill="#2EAA7A"/>
<path fill-rule="evenodd" clip-rule="evenodd" d="M33.459 33.375C33.7875 33.7885 34.1536 34.1714 34.5518 34.5186C31.6275 37.4395 28.684 40.3415 25.7217 43.2236C24.6752 44.2461 22.1188 46.6265 21.292 47.6729C19.8258 53.1474 19.1348 58.0255 19.6162 63.7383C18.6903 63.3584 16.7331 63.3059 16.1572 62.8682C16.2159 62.6109 16.2664 62.3513 16.3086 62.0908C16.7809 59.2463 15.9369 56.7255 14.2949 54.4248L12.3643 56.3662C12.0544 55.9536 11.6989 55.5772 11.3047 55.2441C11.7008 54.7027 12.6476 53.7652 13.168 53.3193C13.9032 52.8218 21.8609 44.7425 22.3613 44.0244C22.8203 43.925 32.4142 34.4725 33.459 33.375Z" fill="#063E7A"/>
<path d="M18.958 51.8425C19.0151 51.8881 19.1291 52.0405 19.181 52.1047C19.3011 52.6221 19.1813 53.1339 19.1077 53.6712L18.9911 53.681C18.8915 53.0896 18.941 52.4484 18.958 51.8425Z" fill="#244247"/>
<path d="M13.4388 62.5076C13.9351 62.602 15.8558 63.0454 16.1573 62.8683C16.7331 63.306 18.6903 63.3588 19.6162 63.7387C20.3692 63.9318 21.3563 64.0656 22.1436 64.218L27.6515 65.3118C28.2895 65.4392 31.4491 66.1718 31.8258 66.033C32.1834 66.4216 42.5332 68.2437 43.8585 68.4597C43.9577 68.476 44.2085 68.4274 44.3193 68.3979C44.5289 68.732 44.5615 68.7205 45.0631 68.8221C46.7263 69.1586 48.3701 69.4458 50.023 69.8465C49.8588 70.3272 49.7582 70.8275 49.724 71.3344C48.2806 71.0375 46.4887 70.7118 45.0419 70.4887C43.6584 70.2424 32.6954 67.8662 32.1273 67.9506C31.7388 67.7107 21.0507 65.6504 19.6786 65.3844C19.159 65.2613 15.9029 64.5515 15.5502 64.5793C15.0116 64.2806 13.4538 64.0921 12.7803 63.9961C13.0581 63.5277 13.2791 63.028 13.4388 62.5076Z" fill="#063E7A"/>
<path d="M167.851 73.8303C164.569 73.8303 161.525 73.3163 158.717 72.2883C155.949 71.2207 153.537 69.7182 151.481 67.7807C149.465 65.8433 147.883 63.5697 146.737 60.9601C145.59 58.3109 145.017 55.4047 145.017 52.2415C145.017 49.0783 145.59 46.1919 146.737 43.5822C147.883 40.933 149.465 38.6397 151.481 36.7022C153.537 34.7648 155.949 33.282 158.717 32.254C161.525 31.1864 164.569 30.6526 167.851 30.6526C171.686 30.6526 175.107 31.3248 178.112 32.6692C181.156 34.0135 183.687 35.951 185.703 38.4815L178.23 45.2429C176.886 43.6613 175.403 42.4553 173.782 41.625C172.2 40.7946 170.421 40.3795 168.444 40.3795C166.744 40.3795 165.182 40.6562 163.759 41.2098C162.335 41.7634 161.109 42.5739 160.081 43.6415C159.093 44.6696 158.302 45.9151 157.709 47.3781C157.155 48.841 156.879 50.4622 156.879 52.2415C156.879 54.0208 157.155 55.6419 157.709 57.1049C158.302 58.5679 159.093 59.8332 160.081 60.9007C161.109 61.9288 162.335 62.7196 163.759 63.2732C165.182 63.8267 166.744 64.1035 168.444 64.1035C170.421 64.1035 172.2 63.6883 173.782 62.858C175.403 62.0276 176.886 60.8217 178.23 59.2401L185.703 66.0014C183.687 68.4924 181.156 70.4299 178.112 71.8138C175.107 73.1582 171.686 73.8303 167.851 73.8303ZM203.513 47.556H222.789V56.3339H203.513V47.556ZM204.343 63.9256H226.051V73H192.719V31.483H225.28V40.5574H204.343V63.9256ZM243.184 73V40.7946H230.432V31.483H267.62V40.7946H254.927V73H243.184ZM273.774 73V31.483H292.753C296.549 31.483 299.811 32.0958 302.539 33.3216C305.307 34.5473 307.442 36.3266 308.945 38.6595C310.447 40.9528 311.199 43.6811 311.199 46.8443C311.199 49.9679 310.447 52.6764 308.945 54.9697C307.442 57.2235 305.307 58.9633 302.539 60.189C299.811 61.3752 296.549 61.9683 292.753 61.9683H280.298L285.517 57.0456V73H273.774ZM299.455 73L289.135 57.8759H301.65L312.029 73H299.455ZM285.517 58.2911L280.298 52.8939H292.042C294.493 52.8939 296.312 52.3601 297.498 51.2925C298.724 50.2249 299.337 48.7422 299.337 46.8443C299.337 44.9068 298.724 43.4043 297.498 42.3367C296.312 41.2691 294.493 40.7353 292.042 40.7353H280.298L285.517 35.3381V58.2911ZM314.475 73L332.801 31.483H344.367L362.753 73H350.535L336.182 37.236H340.808L326.455 73H314.475ZM324.498 64.9338L327.523 56.2746H347.807L350.832 64.9338H324.498Z" fill="#3F444A"/>
<path d="M387.982 73.8303C384.7 73.8303 381.655 73.3163 378.848 72.2883C376.08 71.2207 373.668 69.7182 371.612 67.7807C369.595 65.8433 368.014 63.5697 366.867 60.9601C365.721 58.3109 365.147 55.4047 365.147 52.2415C365.147 49.0783 365.721 46.1919 366.867 43.5822C368.014 40.933 369.595 38.6397 371.612 36.7022C373.668 34.7648 376.08 33.282 378.848 32.254C381.655 31.1864 384.7 30.6526 387.982 30.6526C391.817 30.6526 395.237 31.3248 398.242 32.6692C401.287 34.0135 403.817 35.951 405.834 38.4815L398.361 45.2429C397.016 43.6613 395.534 42.4553 393.913 41.625C392.331 40.7946 390.552 40.3795 388.575 40.3795C386.874 40.3795 385.313 40.6562 383.889 41.2098C382.466 41.7634 381.24 42.5739 380.212 43.6415C379.223 44.6696 378.433 45.9151 377.84 47.3781C377.286 48.841 377.009 50.4622 377.009 52.2415C377.009 54.0208 377.286 55.6419 377.84 57.1049C378.433 58.5679 379.223 59.8332 380.212 60.9007C381.24 61.9288 382.466 62.7196 383.889 63.2732C385.313 63.8267 386.874 64.1035 388.575 64.1035C390.552 64.1035 392.331 63.6883 393.913 62.858C395.534 62.0276 397.016 60.8217 398.361 59.2401L405.834 66.0014C403.817 68.4924 401.287 70.4299 398.242 71.8138C395.237 73.1582 391.817 73.8303 387.982 73.8303ZM432.917 73.8303C429.595 73.8303 426.531 73.2966 423.724 72.229C420.916 71.1614 418.465 69.6589 416.369 67.7214C414.313 65.7444 412.712 63.4511 411.565 60.8414C410.419 58.2318 409.845 55.3651 409.845 52.2415C409.845 49.1178 410.419 46.2512 411.565 43.6415C412.712 41.0319 414.313 38.7583 416.369 36.8209C418.465 34.8439 420.916 33.3216 423.724 32.254C426.531 31.1864 429.595 30.6526 432.917 30.6526C436.278 30.6526 439.342 31.1864 442.11 32.254C444.917 33.3216 447.349 34.8439 449.405 36.8209C451.461 38.7583 453.062 41.0319 454.209 43.6415C455.395 46.2512 455.988 49.1178 455.988 52.2415C455.988 55.3651 455.395 58.2516 454.209 60.9007C453.062 63.5104 451.461 65.7839 449.405 67.7214C447.349 69.6589 444.917 71.1614 442.11 72.229C439.342 73.2966 436.278 73.8303 432.917 73.8303ZM432.917 64.1035C434.498 64.1035 435.961 63.8267 437.306 63.2732C438.69 62.7196 439.876 61.9288 440.864 60.9007C441.892 59.8332 442.683 58.5679 443.237 57.1049C443.83 55.6419 444.126 54.0208 444.126 52.2415C444.126 50.4226 443.83 48.8015 443.237 47.3781C442.683 45.9151 441.892 44.6696 440.864 43.6415C439.876 42.5739 438.69 41.7634 437.306 41.2098C435.961 40.6562 434.498 40.3795 432.917 40.3795C431.335 40.3795 429.852 40.6562 428.469 41.2098C427.124 41.7634 425.938 42.5739 424.91 43.6415C423.921 44.6696 423.131 45.9151 422.538 47.3781C421.984 48.8015 421.707 50.4226 421.707 52.2415C421.707 54.0208 421.984 55.6419 422.538 57.1049C423.131 58.5679 423.921 59.8332 424.91 60.9007C425.938 61.9288 427.124 62.7196 428.469 63.2732C429.852 63.8267 431.335 64.1035 432.917 64.1035ZM463.918 73V31.483H473.586L496.48 59.1214H491.913V31.483H503.419V73H493.751L470.858 45.3615H475.425V73H463.918Z" fill="url(#paint0_linear_60_6)"/>
<path d="M161.392 90.226V103.889H159.792L151.594 93.7002V103.889H149.642V90.226H151.242L159.44 100.415V90.226H161.392ZM176.568 102.191V103.889H166.653V90.226H176.295V91.9241H168.605V96.1205H175.456V97.7796H168.605V102.191H176.568ZM190.309 96.9794H192.183V102.308C191.506 102.867 190.719 103.297 189.821 103.596C188.923 103.895 187.986 104.045 187.01 104.045C185.631 104.045 184.388 103.746 183.282 103.147C182.176 102.536 181.305 101.703 180.667 100.649C180.042 99.5818 179.73 98.3847 179.73 97.0574C179.73 95.7302 180.042 94.533 180.667 93.466C181.305 92.399 182.176 91.5662 183.282 90.9677C184.402 90.3691 185.657 90.0698 187.05 90.0698C188.143 90.0698 189.131 90.252 190.016 90.6163C190.914 90.9677 191.675 91.4881 192.3 92.1778L191.09 93.388C189.997 92.334 188.676 91.807 187.128 91.807C186.087 91.807 185.15 92.0347 184.317 92.4901C183.497 92.9325 182.853 93.5571 182.385 94.3639C181.916 95.1576 181.682 96.0555 181.682 97.0574C181.682 98.0464 181.916 98.9442 182.385 99.751C182.853 100.545 183.497 101.169 184.317 101.625C185.15 102.08 186.08 102.308 187.108 102.308C188.331 102.308 189.398 102.015 190.309 101.43V96.9794ZM203.259 104.045C201.88 104.045 200.637 103.746 199.531 103.147C198.425 102.536 197.553 101.696 196.915 100.629C196.291 99.5623 195.978 98.3717 195.978 97.0574C195.978 95.7432 196.291 94.5526 196.915 93.4855C197.553 92.4185 198.425 91.5857 199.531 90.9872C200.637 90.3756 201.88 90.0698 203.259 90.0698C204.625 90.0698 205.861 90.3756 206.967 90.9872C208.073 91.5857 208.939 92.4185 209.563 93.4855C210.188 94.5395 210.5 95.7302 210.5 97.0574C210.5 98.3847 210.188 99.5818 209.563 100.649C208.939 101.703 208.073 102.536 206.967 103.147C205.861 103.746 204.625 104.045 203.259 104.045ZM203.259 102.308C204.261 102.308 205.159 102.08 205.952 101.625C206.759 101.169 207.39 100.545 207.846 99.751C208.314 98.9442 208.548 98.0464 208.548 97.0574C208.548 96.0685 208.314 95.1772 207.846 94.3834C207.39 93.5766 206.759 92.9455 205.952 92.4901C205.159 92.0347 204.261 91.807 203.259 91.807C202.257 91.807 201.346 92.0347 200.526 92.4901C199.72 92.9455 199.082 93.5766 198.613 94.3834C198.158 95.1772 197.93 96.0685 197.93 97.0574C197.93 98.0464 198.158 98.9442 198.613 99.751C199.082 100.545 199.72 101.169 200.526 101.625C201.346 102.08 202.257 102.308 203.259 102.308ZM220.764 104.045C219.398 104.045 218.161 103.746 217.055 103.147C215.962 102.536 215.104 101.703 214.479 100.649C213.854 99.5818 213.542 98.3847 213.542 97.0574C213.542 95.7302 213.854 94.5395 214.479 93.4855C215.104 92.4185 215.969 91.5857 217.075 90.9872C218.181 90.3756 219.417 90.0698 220.783 90.0698C221.85 90.0698 222.826 90.252 223.711 90.6163C224.596 90.9677 225.351 91.4947 225.975 92.1973L224.707 93.427C223.679 92.347 222.397 91.807 220.862 91.807C219.847 91.807 218.929 92.0347 218.109 92.4901C217.29 92.9455 216.646 93.5766 216.177 94.3834C215.722 95.1772 215.494 96.0685 215.494 97.0574C215.494 98.0464 215.722 98.9442 216.177 99.751C216.646 100.545 217.29 101.169 218.109 101.625C218.929 102.08 219.847 102.308 220.862 102.308C222.384 102.308 223.666 101.761 224.707 100.668L225.975 101.898C225.351 102.601 224.59 103.134 223.692 103.499C222.807 103.863 221.831 104.045 220.764 104.045ZM229.931 90.226H231.883V103.889H229.931V90.226ZM245.85 100.473H238.589L237.086 103.889H235.075L241.263 90.226H243.195L249.402 103.889H247.353L245.85 100.473ZM245.167 98.9117L242.219 92.2168L239.272 98.9117H245.167ZM258.53 104.045C257.164 104.045 255.928 103.746 254.821 103.147C253.728 102.536 252.87 101.703 252.245 100.649C251.62 99.5818 251.308 98.3847 251.308 97.0574C251.308 95.7302 251.62 94.5395 252.245 93.4855C252.87 92.4185 253.735 91.5857 254.841 90.9872C255.947 90.3756 257.183 90.0698 258.55 90.0698C259.617 90.0698 260.592 90.252 261.477 90.6163C262.362 90.9677 263.117 91.4947 263.741 92.1973L262.473 93.427C261.445 92.347 260.163 91.807 258.628 91.807C257.613 91.807 256.695 92.0347 255.875 92.4901C255.056 92.9455 254.412 93.5766 253.943 94.3834C253.488 95.1772 253.26 96.0685 253.26 97.0574C253.26 98.0464 253.488 98.9442 253.943 99.751C254.412 100.545 255.056 101.169 255.875 101.625C256.695 102.08 257.613 102.308 258.628 102.308C260.15 102.308 261.432 101.761 262.473 100.668L263.741 101.898C263.117 102.601 262.356 103.134 261.458 103.499C260.573 103.863 259.597 104.045 258.53 104.045ZM267.697 90.226H269.649V103.889H267.697V90.226ZM281.078 104.045C279.699 104.045 278.456 103.746 277.35 103.147C276.244 102.536 275.372 101.696 274.735 100.629C274.11 99.5623 273.798 98.3717 273.798 97.0574C273.798 95.7432 274.11 94.5526 274.735 93.4855C275.372 92.4185 276.244 91.5857 277.35 90.9872C278.456 90.3756 279.699 90.0698 281.078 90.0698C282.445 90.0698 283.681 90.3756 284.787 90.9872C285.893 91.5857 286.758 92.4185 287.383 93.4855C288.007 94.5395 288.32 95.7302 288.32 97.0574C288.32 98.3847 288.007 99.5818 287.383 100.649C286.758 101.703 285.893 102.536 284.787 103.147C283.681 103.746 282.445 104.045 281.078 104.045ZM281.078 102.308C282.08 102.308 282.978 102.08 283.772 101.625C284.579 101.169 285.21 100.545 285.665 99.751C286.134 98.9442 286.368 98.0464 286.368 97.0574C286.368 96.0685 286.134 95.1772 285.665 94.3834C285.21 93.5766 284.579 92.9455 283.772 92.4901C282.978 92.0347 282.08 91.807 281.078 91.807C280.076 91.807 279.165 92.0347 278.346 92.4901C277.539 92.9455 276.901 93.5766 276.433 94.3834C275.977 95.1772 275.75 96.0685 275.75 97.0574C275.75 98.0464 275.977 98.9442 276.433 99.751C276.901 100.545 277.539 101.169 278.346 101.625C279.165 102.08 280.076 102.308 281.078 102.308ZM304.224 90.226V103.889H302.624L294.426 93.7002V103.889H292.474V90.226H294.075L302.272 100.415V90.226H304.224ZM319.4 102.191V103.889H309.485V90.226H319.127V91.9241H311.437V96.1205H318.288V97.7796H311.437V102.191H319.4ZM327.714 104.045C326.686 104.045 325.69 103.889 324.727 103.577C323.777 103.251 323.029 102.835 322.483 102.327L323.205 100.805C323.725 101.273 324.389 101.657 325.196 101.957C326.016 102.243 326.855 102.386 327.714 102.386C328.846 102.386 329.692 102.197 330.251 101.82C330.811 101.43 331.09 100.916 331.09 100.278C331.09 99.8095 330.934 99.4322 330.622 99.1459C330.323 98.8466 329.945 98.6189 329.49 98.4628C329.047 98.3066 328.416 98.131 327.597 97.9358C326.569 97.6885 325.736 97.4413 325.098 97.1941C324.474 96.9468 323.934 96.5695 323.478 96.062C323.036 95.5415 322.815 94.8453 322.815 93.9735C322.815 93.2448 323.003 92.5877 323.381 92.0021C323.771 91.4166 324.357 90.9481 325.137 90.5968C325.918 90.2455 326.887 90.0698 328.046 90.0698C328.852 90.0698 329.646 90.1739 330.427 90.3821C331.208 90.5903 331.878 90.8896 332.437 91.28L331.793 92.8414C331.221 92.4771 330.609 92.2038 329.958 92.0217C329.308 91.8265 328.67 91.7289 328.046 91.7289C326.939 91.7289 326.107 91.9306 325.547 92.334C325.001 92.7373 324.727 93.2578 324.727 93.8954C324.727 94.3639 324.884 94.7477 325.196 95.047C325.508 95.3333 325.892 95.561 326.347 95.7302C326.816 95.8863 327.447 96.0555 328.241 96.2377C329.269 96.4849 330.095 96.7321 330.72 96.9794C331.344 97.2266 331.878 97.604 332.32 98.1114C332.775 98.6189 333.003 99.3021 333.003 100.161C333.003 100.877 332.808 101.534 332.418 102.132C332.027 102.718 331.435 103.186 330.641 103.538C329.848 103.876 328.872 104.045 327.714 104.045ZM353.354 102.191V103.889H343.439V90.226H353.081V91.9241H345.391V96.1205H352.242V97.7796H345.391V102.191H353.354ZM361.668 104.045C360.64 104.045 359.644 103.889 358.681 103.577C357.731 103.251 356.983 102.835 356.437 102.327L357.159 100.805C357.679 101.273 358.343 101.657 359.15 101.957C359.969 102.243 360.809 102.386 361.668 102.386C362.8 102.386 363.645 102.197 364.205 101.82C364.764 101.43 365.044 100.916 365.044 100.278C365.044 99.8095 364.888 99.4322 364.576 99.1459C364.277 98.8466 363.899 98.6189 363.444 98.4628C363.001 98.3066 362.37 98.131 361.55 97.9358C360.522 97.6885 359.69 97.4413 359.052 97.1941C358.427 96.9468 357.887 96.5695 357.432 96.062C356.99 95.5415 356.768 94.8453 356.768 93.9735C356.768 93.2448 356.957 92.5877 357.334 92.0021C357.725 91.4166 358.31 90.9481 359.091 90.5968C359.872 90.2455 360.841 90.0698 361.999 90.0698C362.806 90.0698 363.6 90.1739 364.381 90.3821C365.161 90.5903 365.831 90.8896 366.391 91.28L365.747 92.8414C365.174 92.4771 364.563 92.2038 363.912 92.0217C363.262 91.8265 362.624 91.7289 361.999 91.7289C360.893 91.7289 360.061 91.9306 359.501 92.334C358.954 92.7373 358.681 93.2578 358.681 93.8954C358.681 94.3639 358.837 94.7477 359.15 95.047C359.462 95.3333 359.846 95.561 360.301 95.7302C360.77 95.8863 361.401 96.0555 362.195 96.2377C363.223 96.4849 364.049 96.7321 364.673 96.9794C365.298 97.2266 365.831 97.604 366.274 98.1114C366.729 98.6189 366.957 99.3021 366.957 100.161C366.957 100.877 366.762 101.534 366.371 102.132C365.981 102.718 365.389 103.186 364.595 103.538C363.802 103.876 362.826 104.045 361.668 104.045ZM373.502 91.9241H368.818V90.226H380.119V91.9241H375.434V103.889H373.502V91.9241ZM392.551 103.889L389.603 99.6924C389.239 99.7185 388.953 99.7315 388.744 99.7315H385.368V103.889H383.416V90.226H388.744C390.514 90.226 391.906 90.6489 392.921 91.4947C393.936 92.3405 394.444 93.5051 394.444 94.9885C394.444 96.0425 394.184 96.9403 393.663 97.682C393.143 98.4237 392.401 98.9637 391.438 99.3021L394.678 103.889H392.551ZM388.686 98.0724C389.922 98.0724 390.865 97.8056 391.516 97.2721C392.167 96.7386 392.492 95.9774 392.492 94.9885C392.492 93.9995 392.167 93.2448 391.516 92.7243C390.865 92.1908 389.922 91.9241 388.686 91.9241H385.368V98.0724H388.686ZM407.474 100.473H400.213L398.71 103.889H396.699L402.887 90.226H404.819L411.026 103.889H408.977L407.474 100.473ZM406.791 98.9117L403.843 92.2168L400.896 98.9117H406.791ZM416.262 91.9241H411.578V90.226H422.879V91.9241H418.195V103.889H416.262V91.9241ZM436.091 102.191V103.889H426.176V90.226H435.818V91.9241H428.128V96.1205H434.979V97.7796H428.128V102.191H436.091ZM449.832 96.9794H451.706V102.308C451.029 102.867 450.242 103.297 449.344 103.596C448.446 103.895 447.51 104.045 446.534 104.045C445.154 104.045 443.912 103.746 442.806 103.147C441.699 102.536 440.828 101.703 440.19 100.649C439.565 99.5818 439.253 98.3847 439.253 97.0574C439.253 95.7302 439.565 94.533 440.19 93.466C440.828 92.399 441.699 91.5662 442.806 90.9677C443.925 90.3691 445.18 90.0698 446.573 90.0698C447.666 90.0698 448.655 90.252 449.539 90.6163C450.437 90.9677 451.199 91.4881 451.823 92.1778L450.613 93.388C449.52 92.334 448.199 91.807 446.651 91.807C445.61 91.807 444.673 92.0347 443.84 92.4901C443.02 92.9325 442.376 93.5571 441.908 94.3639C441.439 95.1576 441.205 96.0555 441.205 97.0574C441.205 98.0464 441.439 98.9442 441.908 99.751C442.376 100.545 443.02 101.169 443.84 101.625C444.673 102.08 445.603 102.308 446.631 102.308C447.854 102.308 448.921 102.015 449.832 101.43V96.9794ZM456.614 90.226H458.566V103.889H456.614V90.226ZM469.937 104.045C468.571 104.045 467.334 103.746 466.228 103.147C465.135 102.536 464.277 101.703 463.652 100.649C463.027 99.5818 462.715 98.3847 462.715 97.0574C462.715 95.7302 463.027 94.5395 463.652 93.4855C464.277 92.4185 465.142 91.5857 466.248 90.9872C467.354 90.3756 468.59 90.0698 469.956 90.0698C471.023 90.0698 471.999 90.252 472.884 90.6163C473.769 90.9677 474.524 91.4947 475.148 92.1973L473.88 93.427C472.852 92.347 471.57 91.807 470.035 91.807C469.02 91.807 468.102 92.0347 467.282 92.4901C466.463 92.9455 465.819 93.5766 465.35 94.3834C464.895 95.1772 464.667 96.0685 464.667 97.0574C464.667 98.0464 464.895 98.9442 465.35 99.751C465.819 100.545 466.463 101.169 467.282 101.625C468.102 102.08 469.02 102.308 470.035 102.308C471.557 102.308 472.839 101.761 473.88 100.668L475.148 101.898C474.524 102.601 473.763 103.134 472.865 103.499C471.98 103.863 471.004 104.045 469.937 104.045ZM487.485 100.473H480.224L478.721 103.889H476.711L482.898 90.226H484.831L491.037 103.889H488.988L487.485 100.473ZM486.802 98.9117L483.855 92.2168L480.907 98.9117H486.802ZM498.229 104.045C497.201 104.045 496.205 103.889 495.242 103.577C494.292 103.251 493.544 102.835 492.998 102.327L493.72 100.805C494.24 101.273 494.904 101.657 495.711 101.957C496.53 102.243 497.37 102.386 498.229 102.386C499.361 102.386 500.206 102.197 500.766 101.82C501.325 101.43 501.605 100.916 501.605 100.278C501.605 99.8095 501.449 99.4322 501.137 99.1459C500.838 98.8466 500.46 98.6189 500.005 98.4628C499.562 98.3066 498.931 98.131 498.111 97.9358C497.083 97.6885 496.251 97.4413 495.613 97.1941C494.988 96.9468 494.448 96.5695 493.993 96.062C493.551 95.5415 493.329 94.8453 493.329 93.9735C493.329 93.2448 493.518 92.5877 493.895 92.0021C494.286 91.4166 494.871 90.9481 495.652 90.5968C496.433 90.2455 497.402 90.0698 498.56 90.0698C499.367 90.0698 500.161 90.1739 500.942 90.3821C501.722 90.5903 502.392 90.8896 502.952 91.28L502.308 92.8414C501.735 92.4771 501.124 92.2038 500.473 92.0217C499.823 91.8265 499.185 91.7289 498.56 91.7289C497.454 91.7289 496.622 91.9306 496.062 92.334C495.515 92.7373 495.242 93.2578 495.242 93.8954C495.242 94.3639 495.398 94.7477 495.711 95.047C496.023 95.3333 496.407 95.561 496.862 95.7302C497.331 95.8863 497.962 96.0555 498.756 96.2377C499.784 96.4849 500.61 96.7321 501.234 96.9794C501.859 97.2266 502.393 97.604 502.835 98.1114C503.29 98.6189 503.518 99.3021 503.518 100.161C503.518 100.877 503.323 101.534 502.933 102.132C502.542 102.718 501.95 103.186 501.156 103.538C500.363 103.876 499.387 104.045 498.229 104.045Z" fill="#3F444A"/>
<defs>
<linearGradient id="paint0_linear_60_6" x1="532.222" y1="50.5975" x2="143" y2="50.5975" gradientUnits="userSpaceOnUse">
<stop stop-color="#2EAA7A"/>
<stop offset="1" stop-color="#56687F"/>
</linearGradient>
</defs>
</svg>
