<svg width="54" height="50" viewBox="0 0 54 50" fill="none" xmlns="http://www.w3.org/2000/svg">
<path d="M21.1773 11.2252C24.6499 9.5721 28.285 9.18458 32.003 10.2868C34.8729 11.1376 38.3901 13.4518 39.8515 16.1148C39.9219 16.3599 39.9504 16.5027 40.0897 16.7216C40.5858 19.3812 37.2978 20.6671 35.9144 18.7165C31.9033 13.0625 23.9406 12.9796 19.7443 18.4923C18.0911 20.7049 17.3723 23.4779 17.7426 26.2149C17.8218 26.7744 17.9915 27.4923 18.17 28.0415C18.1246 28.0535 18.0217 28.0735 17.981 28.0668C17.4377 27.9782 13.1945 27.2312 13.0479 27.0719L13.0417 27.0329C12.4495 23.1694 13.388 19.2273 15.6576 16.0451C16.3534 16.1226 17.0423 16.17 17.7216 15.9922C19.1325 15.6229 20.2744 14.5559 20.8379 13.2236C21.1405 12.5082 21.1729 11.9891 21.1773 11.2252Z" fill="#2EAA7A"/>
<path d="M13.4443 26.042C13.4644 26.4529 13.468 26.7242 13.4464 27.1341C13.2883 26.8532 13.3453 26.3385 13.4443 26.042Z" fill="#244247"/>
<path d="M21.1396 32.559C23.1278 34.264 25.7879 35.26 28.4189 35.0541C31.0834 34.8674 33.5596 33.6112 35.2842 31.5712C35.9935 30.7413 36.433 29.8113 37.6878 29.7215C38.3214 29.6779 38.9466 29.8855 39.4279 30.2992C39.936 30.7414 40.1947 31.3765 40.2268 32.0394C40.2388 32.2789 40.2183 32.5189 40.1653 32.7529C39.9926 32.9388 39.9333 33.1073 39.8844 33.3562C39.7374 33.7346 39.3282 34.2315 39.0664 34.5438C37.5284 36.3486 35.595 37.7748 33.4167 38.7112C28.4349 40.8851 22.8376 39.8956 18.5836 36.6469C18.862 36.2929 19.5415 35.1035 19.819 34.6655C20.1929 34.0751 20.8413 33.1447 21.1396 32.559Z" fill="#063E7A"/>
<path d="M47.5188 19.1021L47.5735 19.1622C47.7815 19.1571 47.9894 19.1454 48.1969 19.1271C49.6699 19.0506 51.1122 19.5705 52.1973 20.5696C55.5743 23.6222 53.9557 29.4854 49.4294 30.2824C49.0768 30.3445 48.6155 30.3301 48.3038 30.3941C48.1092 30.3878 47.8545 30.3595 47.6555 30.3436C46.2649 30.1935 44.7589 29.2141 43.9298 28.1063C43.0321 26.8839 42.6576 25.3544 42.8887 23.8554C43.1817 21.908 44.4851 20.2618 46.3129 19.5294C46.5276 19.4434 47.4386 19.1941 47.5188 19.1021Z" fill="#2EAA7A"/>
<path d="M44.0464 14.5277C43.9454 13.6169 44.0353 12.9148 44.6253 12.1758C45.0942 11.5873 45.7817 11.2143 46.5306 11.1423C47.2747 11.0609 48.0192 11.287 48.5923 11.7681C49.1725 12.2415 49.5349 12.9309 49.5955 13.6773C49.6587 14.4456 49.4125 15.2075 48.9116 15.7936C48.5558 16.2058 48.1559 16.4258 47.6532 16.624C47.476 16.6701 47.1505 16.7156 47.053 16.8225C46.9603 16.7596 46.6375 16.7696 46.4968 16.7525C45.4036 16.6196 44.7727 16.1104 44.2526 15.1512C44.1613 14.9259 44.1132 14.7585 44.0464 14.5277Z" fill="#063E7A"/>
<path d="M20.5083 28.6353C20.8269 27.7025 21.6867 27.062 22.6716 27.0235C23.6566 26.9852 24.5636 27.5568 24.9539 28.4619C25.3442 29.367 25.1373 30.419 24.4332 31.1089C23.7292 31.7988 22.6733 31.9844 21.7762 31.5758C21.578 31.4855 21.393 31.3684 21.2266 31.2279C20.6468 30.7385 20.3345 30.0023 20.3857 29.2453C20.3997 29.0375 20.4409 28.8324 20.5083 28.6353Z" fill="#063E7A"/>
<path d="M44.0464 14.5276C44.1132 14.7584 44.1613 14.9258 44.2526 15.1512L40.0897 16.7216C39.9503 16.5028 39.9218 16.36 39.8514 16.1149C41.2314 15.5723 42.6576 15.0525 44.0464 14.5276Z" fill="#063E7A"/>
<path d="M40.1654 32.7529C41.186 33.3399 42.5806 33.8545 43.6947 34.467L43.4083 35.0743C42.569 34.5752 40.8498 33.8274 39.8844 33.3562C39.9334 33.1074 39.9926 32.9388 40.1654 32.7529Z" fill="#2EAA7A"/>
<path d="M47.053 16.8225C47.1505 16.7156 47.476 16.6701 47.6532 16.624C47.9017 17.5168 48.0317 18.2112 48.1969 19.1271C47.9894 19.1454 47.7815 19.1571 47.5735 19.1622L47.5187 19.102C47.3518 18.4897 47.1812 17.465 47.053 16.8225Z" fill="#063E7A"/>
<path d="M47.6553 30.3435C47.8544 30.3594 48.1091 30.3877 48.3037 30.394C48.1897 31.1312 47.9893 32.0828 47.7774 32.8021C47.6487 32.8029 47.2225 32.6949 47.1366 32.595C47.3401 31.8766 47.4968 31.0788 47.6553 30.3435Z" fill="#063E7A"/>
<path d="M6.37488 26.4757C6.51947 26.4643 7.8552 26.7552 8.06824 26.8057C8.34388 26.8592 9.53088 27.0886 10.6913 27.3204C9.53131 27.0889 8.34458 26.8603 8.06824 26.8067C8.25186 28.2024 8.43189 29.4055 8.86804 30.7804C10.0632 34.547 12.3284 37.7715 15.3759 40.2823C15.4172 40.3161 15.4559 40.3423 15.4872 40.3643C15.627 40.5014 15.8135 40.6646 15.9823 40.7638V40.7628C16.1438 40.8514 16.5186 41.1334 16.7089 41.2598C17.1854 41.5755 17.6742 41.8732 18.1737 42.1514C21.1592 43.8509 24.5402 44.7324 27.9755 44.7071C32.5498 44.6679 37.0339 42.8882 40.496 39.9347C41.1788 39.3519 41.83 38.6738 42.4608 38.0323C43.3491 39.744 44.2853 40.5166 46.1991 40.8751C45.4648 41.8493 44.2808 42.9167 43.3427 43.7061C39.8642 46.6546 35.7064 48.4925 31.2128 49.1973C18.2939 51.2243 5.41285 41.664 3.5116 28.6856C4.92485 28.3142 5.67631 27.783 6.37488 26.4757ZM16.6434 39.7862L16.6425 39.7872L16.6434 39.7862ZM20.8593 33.0528L20.8602 33.0518L20.8593 33.0528ZM21.4725 32.0772H21.4735H21.4725ZM20.9286 30.9288C21.0178 31.0363 21.1179 31.1359 21.2264 31.2276L21.3544 31.3292C21.3106 31.2971 21.2679 31.2636 21.2264 31.2286C21.1178 31.1369 21.0178 31.0364 20.9286 30.9288ZM20.4413 29.9425C20.4621 30.0326 20.4884 30.1212 20.5194 30.2081L20.5692 30.337C20.5152 30.2097 20.4725 30.0777 20.4413 29.9425ZM20.3798 29.3878L20.3807 29.3868C20.38 29.4809 20.3842 29.5745 20.3944 29.6671L20.4139 29.8057C20.3984 29.7143 20.3875 29.6218 20.3827 29.5284C20.3803 29.4817 20.3794 29.4348 20.3798 29.3878ZM13.1718 27.8585C13.189 27.856 13.2292 27.8587 13.2889 27.8663C13.2797 27.8651 13.2709 27.8643 13.2626 27.8634L13.1718 27.8585Z" fill="#063E7A"/>
<path d="M21.2266 31.228C21.3931 31.3686 21.578 31.4856 21.7763 31.5759C21.5641 31.9314 21.3928 32.2286 21.1397 32.5591C20.8413 33.1448 20.1929 34.0752 19.819 34.6656C19.5416 35.1036 18.8621 36.293 18.5837 36.647C17.7937 37.9356 16.8484 39.5435 15.9821 40.7631C15.8132 40.6638 15.6272 40.5013 15.4873 40.3642L17.0549 37.8706C17.3713 37.3643 17.7635 36.6933 18.1057 36.2244C18.8751 34.9251 19.801 33.3832 20.6645 32.1519C20.8413 31.8432 21.0393 31.5318 21.2266 31.228Z" fill="#063E7A"/>
<path d="M13.1714 27.8576C13.4043 27.823 17.8991 28.7976 18.4663 28.8986C19.0594 28.9901 19.7945 29.1236 20.3862 29.2453H20.3853C19.7936 29.1236 19.0593 28.99 18.4663 28.8986C19.0186 30.1239 19.6971 31.2058 20.6646 32.1515C20.8414 31.8429 21.0398 31.5314 21.2271 31.2277C21.3934 31.3681 21.5787 31.4851 21.7769 31.5754C21.5647 31.9308 21.3932 32.2283 21.1401 32.5588C20.8418 33.1444 20.1927 34.0748 19.8188 34.6652C19.5414 35.1033 18.8618 36.2927 18.5835 36.6467C17.7936 37.9352 16.8481 39.5433 15.9819 40.7629C15.813 40.6636 15.6277 40.5005 15.4878 40.3634L17.0552 37.8703C17.3715 37.364 17.7638 36.6927 18.106 36.2238C17.6547 35.8815 17.1084 35.3282 16.7271 34.9035C14.8738 32.8394 13.7594 30.5489 13.1714 27.8576Z" fill="#2EAA7A"/>
<path d="M3.55713 20.9325C3.75835 19.9136 3.87777 19.0496 4.1668 18.0236C5.63035 12.7886 8.77014 8.17792 13.105 4.89822C18.2553 1.0068 24.7455 -0.668785 31.136 0.243101C37.8459 1.17128 43.3829 4.71356 47.4403 10.0675C45.4771 9.88231 44.1319 10.6315 43.2053 12.3619C40.8845 9.37398 37.7551 7.11513 34.1884 5.85379C30.1737 4.4191 25.7959 4.36384 21.7466 5.69674C20.5531 6.09108 19.4524 6.619 18.3186 7.15409C17.3476 6.81733 16.4589 6.62889 15.4455 6.89703C12.7605 7.60743 11.3975 10.0802 12.0238 12.6913C11.738 13.1724 11.3027 13.7175 10.9891 14.2369C10.2369 15.4831 9.67913 16.6928 9.16773 18.0489C8.9633 18.3426 5.69932 21.6564 5.39844 21.8598C4.79572 21.3622 4.33686 21.0884 3.55713 20.9325Z" fill="#063E7A"/>
<path d="M13.7175 13.6831C12.5323 12.1918 12.7296 10.0321 14.1654 8.78015C15.6012 7.5283 17.7677 7.62701 19.0837 9.00435C20.3996 10.3817 20.3996 12.5504 19.0836 13.9278C17.7676 15.305 15.6011 15.4038 14.1654 14.1518C14.0021 14.0095 13.8522 13.8526 13.7175 13.6831Z" fill="#063E7A"/>
<path d="M47.1367 32.595C47.2226 32.6949 47.6487 32.8029 47.7774 32.8021C50.8939 33.7783 51.2591 37.9538 48.3643 39.4214C47.5147 39.8467 46.5293 39.9117 45.6312 39.6013C44.7442 39.3026 44.0117 38.6636 43.5949 37.8251C43.0873 36.8019 43.2124 36.1059 43.4084 35.0742L43.6947 34.467C44.266 33.6362 44.892 33.0334 45.8988 32.7778C46.2951 32.6773 46.7025 32.7014 47.0988 32.6542L47.1367 32.595Z" fill="#2EAA7A"/>
<path d="M5.23964 26.2368C4.63674 27.2535 3.46321 27.7857 2.30116 27.5693C1.13912 27.3529 0.235829 26.434 0.0393274 25.2684C-0.157174 24.1029 0.394927 22.9386 1.42178 22.3531C2.44868 21.7677 3.7318 21.8857 4.63469 22.6486C4.79637 22.7852 4.94216 22.9396 5.06924 23.1088C5.61025 23.8293 5.77394 24.7652 5.50962 25.6266C5.44412 25.8399 5.3535 26.0448 5.23964 26.2368Z" fill="#2EAA7A"/>
<path d="M13.7175 13.6831C13.8522 13.8526 14.0021 14.0095 14.1653 14.1518C12.9664 15.3493 11.7597 16.5389 10.5452 17.7206C10.1162 18.1398 9.06811 19.1157 8.72916 19.5447C8.47945 19.7081 8.22693 19.9854 8.01462 20.2023C7.31491 20.917 6.55638 21.5972 5.86059 22.3128L5.06919 23.1089C4.94211 22.9396 4.79632 22.7852 4.63464 22.6486C4.79704 22.4266 5.1851 22.0425 5.39843 21.8597C5.69931 21.6564 8.96329 18.3425 9.16771 18.0488C9.35589 18.0081 13.2891 14.1331 13.7175 13.6831Z" fill="#2EAA7A"/>
<path d="M13.7177 13.6833C13.8523 13.8528 14.0018 14.0099 14.1649 14.1521C12.9661 15.3495 11.7592 16.5389 10.5448 17.7205C10.1158 18.1396 9.06845 19.1156 8.72937 19.5447C8.12824 21.7891 7.84448 23.7894 8.04187 26.1316C7.66223 25.9759 6.85997 25.9536 6.6239 25.7742C6.64792 25.6688 6.66909 25.5626 6.6864 25.4558C6.88004 24.2896 6.53339 23.2565 5.86023 22.3132L5.06921 23.1091C4.94213 22.9399 4.79632 22.7848 4.63464 22.6482C4.79713 22.4262 5.18505 22.0429 5.39832 21.8601C5.69919 21.6567 8.96342 18.3422 9.16785 18.0486C9.35923 18.0045 13.2895 14.1331 13.7177 13.6833ZM5.55359 25.4646H5.55457H5.55359Z" fill="#063E7A"/>
<path d="M7.77232 21.2542C7.79574 21.2729 7.8425 21.3353 7.86378 21.3616C7.91298 21.5738 7.86387 21.7836 7.83372 22.0039L7.7859 22.0079C7.74507 21.7654 7.76537 21.5025 7.77232 21.2542Z" fill="#244247"/>
<path d="M5.5096 25.6265C5.71305 25.6652 6.50048 25.847 6.62409 25.7743C6.86017 25.9538 7.66256 25.9754 8.04216 26.1312C8.35088 26.2104 8.75559 26.2652 9.07837 26.3277L11.3365 26.7761C11.598 26.8284 12.8934 27.1287 13.0479 27.0718C13.1944 27.2311 17.4376 27.9782 17.981 28.0667C18.0217 28.0734 18.1245 28.0535 18.1699 28.0414C18.2558 28.1784 18.2692 28.1736 18.4748 28.2153C19.1567 28.3532 19.8306 28.471 20.5083 28.6353C20.4409 28.8323 20.3997 29.0374 20.3857 29.2453C19.794 29.1235 19.0593 28.99 18.4661 28.8986C17.8989 28.7976 13.4043 27.8234 13.1715 27.858C13.0122 27.7596 8.63029 26.915 8.06777 26.8059C7.85475 26.7554 6.5198 26.4644 6.37522 26.4758C6.15441 26.3534 5.51574 26.2761 5.23962 26.2367C5.35348 26.0447 5.4441 25.8398 5.5096 25.6265Z" fill="#063E7A"/>
</svg>
